<svg width="640" height="512" xmlns="http://www.w3.org/2000/svg" role="img" class="svg-inline--fa fa-user-slash fa-w-20" data-icon="user-slash" data-prefix="fas" focusable="false" aria-hidden="true">

 <g>
  <title>Layer 1</title>
  <path id="svg_1" d="m633.8,458.1l-271.5,-209.8c49.8,-17.6 85.7,-64.5 85.7,-120.3c0,-70.7 -57.3,-128 -128,-128c-67.1,0 -121.5,51.8 -126.9,117.4l-147.6,-114c-7,-5.4 -17,-4.2 -22.5,2.8l-19.6,25.2c-5.4,7 -4.2,17 2.8,22.4l588.4,454.7c7,5.4 17,4.2 22.5,-2.8l19.6,-25.3c5.4,-6.8 4.1,-16.9 -2.9,-22.3zm-537.8,-35.7l0,41.6c0,26.5 21.5,48 48,48l350.2,0l-286.8,-221.7c-63.2,11 -111.4,65.7 -111.4,132.1z" fill="#ff5d00"/>
 </g>
</svg>