<svg width="512" height="512" xmlns="http://www.w3.org/2000/svg" role="img" class="svg-inline--fa fa-hamburger fa-w-16" data-icon="hamburger" data-prefix="fas" focusable="false" aria-hidden="true">

 <g>
  <title>Layer 1</title>
  <path id="svg_1" d="m464,256l-416,0a48,48 0 0 0 0,96l416,0a48,48 0 0 0 0,-96zm16,128l-448,0a16,16 0 0 0 -16,16l0,16a64,64 0 0 0 64,64l352,0a64,64 0 0 0 64,-64l0,-16a16,16 0 0 0 -16,-16zm-421.36,-160l394.72,0c34.57,0 54.62,-43.9 34.82,-75.88c-40.18,-64.92 -128.63,-116.02 -232.18,-116.12c-103.54,0.1 -192,51.2 -232.18,116.11c-19.82,31.98 0.25,75.89 34.82,75.89zm325.36,-112a16,16 0 1 1 -16,16a16,16 0 0 1 16,-16zm-128,-32a16,16 0 1 1 -16,16a16,16 0 0 1 16,-16zm-128,32a16,16 0 1 1 -16,16a16,16 0 0 1 16,-16z" fill="#ffffff"/>
 </g>
</svg>