<svg width="640" height="512" xmlns="http://www.w3.org/2000/svg" role="img" class="svg-inline--fa fa-oil-can fa-w-20" data-icon="oil-can" data-prefix="fas" focusable="false" aria-hidden="true">

 <g>
  <title>Layer 1</title>
  <path id="svg_1" d="m629.8,160.31l-213.8,63.69l-50.49,-25.24a64.07,64.07 0 0 0 -28.62,-6.76l-56.89,0l0,-48l56,0c8.84,0 16,-7.16 16,-16l0,-16c0,-8.84 -7.16,-16 -16,-16l-160,0c-8.84,0 -16,7.16 -16,16l0,16c0,8.84 7.16,16 16,16l56,0l0,48l-56,0l-138.28,-25.14a31.9,31.9 0 0 0 -5.79,-0.53c-17.26,0 -31.93,14.03 -31.93,32.01l0,94.95c0,15.46 11.06,28.72 26.28,31.48l69.72,12.69l0,46.54c0,17.67 14.33,32 32,32l274.63,0c8.55,0 16.75,-3.42 22.76,-9.51l212.26,-214.75c1.5,-1.5 2.34,-3.54 2.34,-5.66l0,-18.08c0.01,-5.31 -5.08,-9.15 -10.19,-7.69zm-533.8,128.36l-48,-8.73l0,-62.43l48,8.73l0,62.43zm453.33,84.66c0,23.56 19.1,42.67 42.67,42.67s42.67,-19.1 42.67,-42.67s-42.67,-85.33 -42.67,-85.33s-42.67,61.77 -42.67,85.33z" fill="#ff5d00"/>
 </g>
</svg>