<svg width="512" height="512" xmlns="http://www.w3.org/2000/svg" role="img" class="svg-inline--fa fa-gas-pump fa-w-16" data-icon="gas-pump" data-prefix="fas" focusable="false" aria-hidden="true">

 <g>
  <title>Layer 1</title>
  <path id="svg_1" d="m336,448l-320,0c-8.8,0 -16,7.2 -16,16l0,32c0,8.8 7.2,16 16,16l320,0c8.8,0 16,-7.2 16,-16l0,-32c0,-8.8 -7.2,-16 -16,-16zm157.2,-340.7l-81,-81c-6.2,-6.2 -16.4,-6.2 -22.6,0l-11.3,11.3c-6.2,6.2 -6.2,16.4 0,22.6l37.7,37.7l0,62.1c0,28.1 20.9,51.3 48,55.2l0,160.8c0,13.2 -10.8,24 -24,24s-24,-10.8 -24,-24l0,-32c0,-48.6 -39.4,-88 -88,-88l-8,0l0,-192c0,-35.3 -28.7,-64 -64,-64l-160,0c-35.3,0 -64,28.7 -64,64l0,352l288,0l0,-112l8,0c22.1,0 40,17.9 40,40l0,27.8c0,37.7 27,72 64.5,75.9c43,4.3 79.5,-29.5 79.5,-71.7l0,-223.4c0,-17 -6.8,-33.3 -18.8,-45.3zm-237.2,84.7l-160,0l0,-128l160,0l0,128z" fill="#ffffff"/>
 </g>
</svg>