<svg width="512" height="512" xmlns="http://www.w3.org/2000/svg" role="img" class="svg-inline--fa fa-meteor fa-w-16" data-icon="meteor" data-prefix="fas" focusable="false" aria-hidden="true">

 <g>
  <title>Layer 1</title>
  <path id="svg_1" d="m511.328,20.8027c-11.60759,38.70264 -34.30724,111.70173 -61.30311,187.70077c6.99893,2.09372 13.4042,4 18.60653,5.59368a16.06158,16.06158 0 0 1 9.49854,22.906c-22.106,42.29635 -82.69047,152.795 -142.47819,214.40356c-0.99984,1.09373 -1.99969,2.5 -2.99954,3.49995a194.83046,194.83046 0 1 1 -275.56723,-275.49657c0.99985,-1 2.40588,-2 3.49947,-3c61.59994,-59.90549 171.97367,-120.40473 214.37343,-142.4982a16.058,16.058 0 0 1 22.90274,9.49988c1.59351,5.09368 3.49947,11.5936 5.5929,18.59351c75.89464,-26.99963 148.9772,-49.70247 187.6744,-61.29607a16.18325,16.18325 0 0 1 20.20006,20.09349zm-191.377,299.19937a127.98041,127.98041 0 1 0 -127.98039,127.99839a127.97573,127.97573 0 0 0 127.98039,-127.99839zm-127.98041,-31.9996a31.9951,31.9951 0 1 1 -31.9951,-31.9996a31.959,31.959 0 0 1 31.99512,31.9996l-0.00002,0zm31.9951,79.999a15.99755,15.99755 0 1 1 -15.99755,-15.9998a16.04975,16.04975 0 0 1 15.99757,15.9998l-0.00002,0z" fill="#ffffff"/>
 </g>
</svg>